<svg width="50" height="50" viewBox="0 0 176 177" fill="none" xmlns="http://www.w3.org/2000/svg">
<g filter="url(#filter0_d_167:20694)">
<path d="M173.988 49.4417C173.979 47.7216 173.959 46.0017 173.911 44.2824C173.81 40.5349 173.59 36.7554 172.923 33.0496C172.247 29.2904 171.144 25.7919 169.404 22.3762C167.694 19.0192 165.46 15.9472 162.795 13.2839C160.131 10.6206 157.058 8.38839 153.699 6.67947C150.28 4.93965 146.778 3.83627 143.015 3.16058C139.308 2.49513 135.528 2.27449 131.78 2.17325C130.06 2.1267 128.339 2.10708 126.618 2.09644C124.575 2.08391 122.532 2.08496 120.489 2.08496L96.7662 2H79.0238L55.7211 2.08496C53.6739 2.08496 51.6268 2.08391 49.5798 2.09644C47.8552 2.10708 46.1314 2.1267 44.4074 2.17325C40.6512 2.27449 36.8621 2.49533 33.1472 3.16162C29.3789 3.83709 25.8713 4.94006 22.4477 6.67863C19.0821 8.38777 16.0027 10.6202 13.3325 13.2839C10.6628 15.947 8.42491 19.0184 6.71181 22.3749C4.96761 25.7921 3.86172 29.2928 3.18416 33.0541C2.51704 36.7582 2.29599 40.5366 2.19433 44.2824C2.14799 46.0021 2.12796 47.7217 2.11752 49.4417C2.10499 51.4841 2 54.0209 2 56.0629V79.0428V96.9754L2.10604 120.444C2.10604 122.488 2.1052 124.533 2.11752 126.578C2.12796 128.3 2.14799 130.022 2.19454 131.744C2.29599 135.496 2.51746 139.282 3.1852 142.992C3.86256 146.757 4.96822 150.26 6.71096 153.68C8.42428 157.042 10.6626 160.118 13.3325 162.785C16.0025 165.452 19.0811 167.687 22.446 169.399C25.8718 171.141 29.3809 172.245 33.1517 172.922C36.8647 173.588 40.6527 173.81 44.4074 173.911C46.1314 173.957 47.8554 173.977 49.58 173.988C51.6271 174 53.6739 174 55.7211 174H79.2343H97.0209H120.489C122.532 174 124.575 174 126.618 173.988C128.339 173.977 130.06 173.957 131.78 173.911C135.529 173.81 139.311 173.588 143.019 172.922C146.78 172.245 150.281 171.141 153.698 169.399C157.057 167.687 160.13 165.452 162.795 162.785C165.46 160.118 167.694 157.043 169.404 153.682C171.144 150.26 172.247 146.755 172.923 142.988C173.59 139.279 173.81 135.495 173.912 131.744C173.959 130.022 173.979 128.3 173.988 126.578C174 124.533 174 122.488 174 120.444C174 120.444 174 97.3897 174 96.9754V79.0239C174 78.718 174 55.5677 174 55.5677C174 53.5259 174 51.4839 173.988 49.4417Z" fill="url(#paint0_linear_167:20694)"/>
<mask id="mask0_167:20694" style="mask-type:alpha" maskUnits="userSpaceOnUse" x="2" y="2" width="172" height="172">
<path d="M173.988 49.4417C173.979 47.7216 173.959 46.0017 173.911 44.2824C173.81 40.5349 173.59 36.7554 172.923 33.0496C172.247 29.2904 171.144 25.7919 169.404 22.3762C167.694 19.0192 165.46 15.9472 162.795 13.2839C160.131 10.6206 157.058 8.38839 153.699 6.67947C150.28 4.93965 146.778 3.83627 143.015 3.16058C139.308 2.49513 135.528 2.27449 131.78 2.17325C130.06 2.1267 128.339 2.10708 126.618 2.09644C124.575 2.08391 122.532 2.08496 120.489 2.08496L96.7662 2H79.0238L55.7211 2.08496C53.6739 2.08496 51.6268 2.08391 49.5798 2.09644C47.8552 2.10708 46.1314 2.1267 44.4074 2.17325C40.6512 2.27449 36.8621 2.49533 33.1472 3.16162C29.3789 3.83709 25.8713 4.94006 22.4477 6.67863C19.0821 8.38777 16.0027 10.6202 13.3325 13.2839C10.6628 15.947 8.42491 19.0184 6.71181 22.3749C4.96761 25.7921 3.86172 29.2928 3.18416 33.0541C2.51704 36.7582 2.29599 40.5366 2.19433 44.2824C2.14799 46.0021 2.12796 47.7217 2.11752 49.4417C2.10499 51.4841 2 54.0209 2 56.0629V79.0428V96.9754L2.10604 120.444C2.10604 122.488 2.1052 124.533 2.11752 126.578C2.12796 128.3 2.14799 130.022 2.19454 131.744C2.29599 135.496 2.51746 139.282 3.1852 142.992C3.86256 146.757 4.96822 150.26 6.71096 153.68C8.42428 157.042 10.6626 160.118 13.3325 162.785C16.0025 165.452 19.0811 167.687 22.446 169.399C25.8718 171.141 29.3809 172.245 33.1517 172.922C36.8647 173.588 40.6527 173.81 44.4074 173.911C46.1314 173.957 47.8554 173.977 49.58 173.988C51.6271 174 53.6739 174 55.7211 174H79.2343H97.0209H120.489C122.532 174 124.575 174 126.618 173.988C128.339 173.977 130.06 173.957 131.78 173.911C135.529 173.81 139.311 173.588 143.019 172.922C146.78 172.245 150.281 171.141 153.698 169.399C157.057 167.687 160.13 165.452 162.795 162.785C165.46 160.118 167.694 157.043 169.404 153.682C171.144 150.26 172.247 146.755 172.923 142.988C173.59 139.279 173.81 135.495 173.912 131.744C173.959 130.022 173.979 128.3 173.988 126.578C174 124.533 174 122.488 174 120.444C174 120.444 174 97.3897 174 96.9754V79.0239C174 78.718 174 55.5677 174 55.5677C174 53.5259 174 51.4839 173.988 49.4417Z" fill="white"/>
</mask>
<g mask="url(#mask0_167:20694)">
<g filter="url(#filter1_i_167:20694)">
<path d="M116.912 56.3189C118.576 55.9466 120.108 56.5934 120.766 57.9528V100.027C120.563 101.077 119.719 102.603 117.732 103.295C114.944 104.215 113.48 104.493 111.474 104.874C110.78 105.006 110.021 105.15 109.12 105.338C106.412 105.714 100.232 107.371 96.816 110.648C93.8627 113.824 93.6301 118.59 93.535 120.861C93.7176 128.598 100.732 133.315 108.3 133.115C115.53 132.952 118.942 131.061 122.654 127.805C126.488 124.404 127.165 120.083 127.165 115.959V99.2105V56.7273V32.2178C127.165 29.486 125.001 27.7072 122.244 28.1329L66.4666 39.1622C63.6747 39.5201 62.1593 42.1273 62.1954 44.881V68.5736V110.24C62.1905 110.223 62.1865 110.26 62.1777 110.34C62.1112 110.945 61.7717 114.038 58.6741 115.142C55.7906 116.059 54.3126 116.327 52.104 116.726C51.3876 116.856 50.5943 117 49.6514 117.184C47.2893 117.536 41.1092 119.194 37.7576 122.494C34.7393 125.647 34.507 130.413 34.4766 132.707C34.5945 140.42 41.6082 145.138 48.831 144.962C56.4066 144.775 59.8184 142.884 63.5957 139.651C67.3642 136.227 68.53 131.906 68.5949 127.805V110.24V68.1651C69.0557 67.0155 69.9397 66.1687 71.0557 66.1227L116.912 56.3189Z" fill="white"/>
</g>
<mask id="mask1_167:20694" style="mask-type:alpha" maskUnits="userSpaceOnUse" x="34" y="28" width="94" height="117">
<path d="M116.912 56.3189C118.576 55.9466 120.108 56.5934 120.766 57.9528V100.027C120.563 101.077 119.719 102.603 117.732 103.295C114.944 104.215 113.48 104.493 111.474 104.874C110.78 105.006 110.021 105.15 109.12 105.338C106.412 105.714 100.232 107.371 96.816 110.648C93.8627 113.824 93.6301 118.59 93.535 120.861C93.7176 128.598 100.732 133.315 108.3 133.115C115.53 132.952 118.942 131.061 122.654 127.805C126.488 124.404 127.165 120.083 127.165 115.959V99.2105V56.7273V32.2178C127.165 29.486 125.001 27.7072 122.244 28.1329L66.4666 39.1622C63.6747 39.5201 62.1593 42.1273 62.1954 44.881V68.5736V110.24C62.1905 110.223 62.1865 110.26 62.1777 110.34C62.1112 110.945 61.7717 114.038 58.6741 115.142C55.7906 116.059 54.3126 116.327 52.104 116.726C51.3876 116.856 50.5943 117 49.6514 117.184C47.2893 117.536 41.1092 119.194 37.7576 122.494C34.7393 125.647 34.507 130.413 34.4766 132.707C34.5945 140.42 41.6082 145.138 48.831 144.962C56.4066 144.775 59.8184 142.884 63.5957 139.651C67.3642 136.227 68.53 131.906 68.5949 127.805V110.24V68.1651C69.0557 67.0155 69.9397 66.1687 71.0557 66.1227L116.912 56.3189Z" fill="white"/>
</mask>
<g mask="url(#mask1_167:20694)">
</g>
</g>
</g>
<defs>
<filter id="filter0_d_167:20694" x="0.4" y="0.844444" width="175.2" height="175.2" filterUnits="userSpaceOnUse" color-interpolation-filters="sRGB">
<feFlood flood-opacity="0" result="BackgroundImageFix"/>
<feColorMatrix in="SourceAlpha" type="matrix" values="0 0 0 0 0 0 0 0 0 0 0 0 0 0 0 0 0 0 127 0" result="hardAlpha"/>
<feOffset dy="0.444444"/>
<feGaussianBlur stdDeviation="0.8"/>
<feColorMatrix type="matrix" values="0 0 0 0 0 0 0 0 0 0 0 0 0 0 0 0 0 0 0.4 0"/>
<feBlend mode="normal" in2="BackgroundImageFix" result="effect1_dropShadow_167:20694"/>
<feBlend mode="normal" in="SourceGraphic" in2="effect1_dropShadow_167:20694" result="shape"/>
</filter>
<filter id="filter1_i_167:20694" x="34.4766" y="28.0701" width="92.689" height="117.43" filterUnits="userSpaceOnUse" color-interpolation-filters="sRGB">
<feFlood flood-opacity="0" result="BackgroundImageFix"/>
<feBlend mode="normal" in="SourceGraphic" in2="BackgroundImageFix" result="shape"/>
<feColorMatrix in="SourceAlpha" type="matrix" values="0 0 0 0 0 0 0 0 0 0 0 0 0 0 0 0 0 0 127 0" result="hardAlpha"/>
<feOffset dy="0.533333"/>
<feGaussianBlur stdDeviation="0.266667"/>
<feComposite in2="hardAlpha" operator="arithmetic" k2="-1" k3="1"/>
<feColorMatrix type="matrix" values="0 0 0 0 0.358299 0 0 0 0 0 0 0 0 0 0 0 0 0 0.67152 0"/>
<feBlend mode="normal" in2="shape" result="effect1_innerShadow_167:20694"/>
</filter>
<linearGradient id="paint0_linear_167:20694" x1="173.862" y1="173.723" x2="173.862" y2="2" gradientUnits="userSpaceOnUse">
<stop stop-color="#FA233B"/>
<stop offset="1" stop-color="#FB5C74"/>
</linearGradient>
</defs>
</svg>
