<svg width="175" height="172" viewBox="0 0 175 172" fill="none" xmlns="http://www.w3.org/2000/svg">
<g clip-path="url(#clip0_220:4348)">
<path d="M87.6208 5.00847e-05C102.509 5.00847e-05 117.398 -0.0682996 132.286 0.0281941C141.179 0.0844821 149.762 1.60426 157.235 6.82698C166.892 13.5574 171.962 22.9696 173.169 34.5689C173.48 37.761 173.623 40.967 173.6 44.1741C173.6 72.9734 173.624 101.769 173.572 130.568C173.572 139.458 172.034 148.017 166.84 155.524C159.85 165.648 149.967 170.609 137.904 171.678C134.495 171.98 131.087 172.012 127.675 172.012C99.4511 172.012 71.2274 172.056 43.0077 171.98C34.5574 171.96 26.3165 170.645 19.001 165.969C9.55688 159.938 4.02399 151.302 2.21323 140.278C1.61589 136.38 1.33732 132.44 1.38028 128.497C1.40711 99.5011 1.4165 70.5021 1.40845 41.5004C1.40845 32.5345 2.94559 23.9104 8.20082 16.3678C14.9731 6.64605 24.4816 1.60828 36.1751 0.430251C39.4384 0.120072 42.7154 -0.0235147 45.9934 5.00847e-05C59.8625 0.0161324 73.7383 0.0161324 87.6208 5.00847e-05Z" fill="#191414"/>
<path d="M155.388 86.0723C155.424 123.307 124.806 153.843 87.48 153.831C50.1542 153.819 19.6167 123.355 19.6006 86.0402C19.5845 48.7253 50.0496 18.2333 87.4076 18.181C124.838 18.1247 155.347 48.5966 155.388 86.0723Z" fill="#1ED660"/>
<path d="M77.6616 54.137C93.8217 54.1732 109.559 56.5212 124.605 62.6767C127.774 63.96 130.839 65.4842 133.775 67.236C137.131 69.2463 138.161 72.8648 136.354 76.025C134.548 79.1852 130.834 80.1179 127.45 78.1921C116.183 71.7592 103.869 68.8241 91.1015 67.4853C76.716 65.9736 62.4794 66.6128 48.4681 70.5369C46.8903 70.9517 45.2126 70.7319 43.7952 69.9245C42.3778 69.1172 41.3337 67.7867 40.8871 66.2188C40.4076 64.6204 40.5823 62.8972 41.3729 61.4274C42.1635 59.9575 43.5054 58.8611 45.1041 58.3787C50.2233 56.8069 55.4767 55.71 60.7974 55.1019C66.3892 54.3857 72.0245 54.0633 77.6616 54.137Z" fill="#191414"/>
<path d="M76.2973 77.4443C93.0489 77.5931 108.967 81.0387 123.659 89.3734C123.949 89.5382 124.238 89.7071 124.524 89.884C127.614 91.7897 128.548 94.8293 126.894 97.5231C125.24 100.217 122.222 100.788 119.18 98.9946C114.574 96.2503 109.663 94.0549 104.545 92.4531C87.3872 87.15 70.1045 86.362 52.693 91.1907C49.1681 92.1717 46.3192 90.8288 45.4138 87.8134C44.5084 84.798 46.2186 82.0961 49.7274 81.0628C58.3578 78.5578 67.3108 77.3385 76.2973 77.4443Z" fill="#191414"/>
<path d="M75.7742 99.5694C91.0973 99.5131 104.308 102.557 116.452 109.729C118.729 111.076 119.635 112.845 119.1 114.803C118.295 117.767 115.297 118.824 112.352 117.107C105.878 113.289 98.7812 110.643 91.387 109.291C79.4118 107.084 67.5212 107.876 55.6828 110.324C54.878 110.489 54.1175 110.694 53.3288 110.839C50.8219 111.293 48.5887 109.894 48.0977 107.594C47.6068 105.295 48.9589 103.204 51.3974 102.621C56.2887 101.465 61.2498 100.627 66.2496 100.112C69.4114 99.7487 72.5916 99.5675 75.7742 99.5694Z" fill="#191414"/>
</g>
<defs>
<clipPath id="clip0_220:4348">
<rect width="175" height="172" fill="white"/>
</clipPath>
</defs>
</svg>
